<svg id="_001-llamada-telefnica" data-name="001-llamada-telefnica" xmlns="http://www.w3.org/2000/svg" width="17.087" height="17.087" viewBox="0 0 17.087 17.087">
  <g id="Grupo_3798" data-name="Grupo 3798">
    <path id="Trazado_7437" data-name="Trazado 7437" d="M15.738,11.251a9.754,9.754,0,0,1-3.066-.488,1.314,1.314,0,0,0-1.334.282L9.4,12.51A10.835,10.835,0,0,1,4.577,7.688L6,5.794a1.362,1.362,0,0,0,.334-1.376,9.78,9.78,0,0,1-.49-3.069A1.351,1.351,0,0,0,4.5,0H1.349A1.351,1.351,0,0,0,0,1.349,15.757,15.757,0,0,0,15.738,17.087a1.351,1.351,0,0,0,1.349-1.349V12.6A1.351,1.351,0,0,0,15.738,11.251Zm.45,4.488a.45.45,0,0,1-.45.45A14.856,14.856,0,0,1,.9,1.349.45.45,0,0,1,1.349.9H4.5a.45.45,0,0,1,.45.45,10.676,10.676,0,0,0,.532,3.346.5.5,0,0,1-.155.513L3.687,7.375a.45.45,0,0,0-.041.475,11.8,11.8,0,0,0,5.592,5.592.448.448,0,0,0,.476-.041l2.214-1.678a.451.451,0,0,1,.458-.107,10.67,10.67,0,0,0,3.353.535.45.45,0,0,1,.45.45v3.139Z" fill="#a23388"/>
  </g>
</svg>
