<?xml version="1.0" encoding="UTF-8"?>
<svg xmlns="http://www.w3.org/2000/svg" xmlns:xlink="http://www.w3.org/1999/xlink" width="25px" height="25px" viewBox="0 0 25 25" version="1.1">
<g id="surface1">
<path style="fill-rule:nonzero;fill:rgb(31.372549%,17.254902%,51.764706%);fill-opacity:1;stroke-width:0.00016;stroke-linecap:butt;stroke-linejoin:miter;stroke:rgb(31.372549%,17.254902%,51.764706%);stroke-opacity:1;stroke-miterlimit:4;" d="M 0 2.5 C 0 2.225 0.225 2 0.5 2 L 2 2 C 2.23 2 2.43 2.1575 2.485 2.38 L 2.89 4 L 14.5 4 C 14.655 4 14.8 4.07 14.895 4.1925 C 14.9875 4.3125 15.0225 4.4725 14.985 4.62 L 13.485 10.62 C 13.43 10.8425 13.23 11 13 11 L 4 11 C 3.77 11 3.57 10.8425 3.515 10.62 L 1.61 3 L 0.5 3 C 0.225 3 0 2.775 0 2.5 Z M 3.14 5 L 4.39 10 L 12.61 10 L 13.86 5 Z M 5 13 C 4.4475 13 4 13.4475 4 14 C 4 14.5525 4.4475 15 5 15 C 5.5525 15 6 14.5525 6 14 C 6 13.4475 5.5525 13 5 13 Z M 3 14 C 3 12.895 3.895 12 5 12 C 6.105 12 7 12.895 7 14 C 7 15.105 6.105 16 5 16 C 3.895 16 3 15.105 3 14 Z M 12 13 C 11.4475 13 11 13.4475 11 14 C 11 14.5525 11.4475 15 12 15 C 12.5525 15 13 14.5525 13 14 C 13 13.4475 12.5525 13 12 13 Z M 10 14 C 10 12.895 10.895 12 12 12 C 13.105 12 14 12.895 14 14 C 14 15.105 13.105 16 12 16 C 10.895 16 10 15.105 10 14 Z M 10 14 " transform="matrix(1.5625,0,0,1.5625,0,0)"/>
</g>
</svg>
