<svg width="512" height="512" viewBox="0 0 512 512" fill="none" xmlns="http://www.w3.org/2000/svg">
<g clip-path="url(#clip0_22_2)">
<path d="M425.501 287.246C422.31 284.055 418.706 281.426 414.811 279.408L442.565 251.656C459.355 234.866 459.439 207.672 442.654 190.792C442.616 190.753 442.579 190.715 442.542 190.678C439.087 187.224 435.186 184.479 431.023 182.445C442.047 165.755 440.246 143.022 425.613 128.307C414.628 117.234 399.037 113.383 384.878 116.793C382.797 110.457 379.244 104.655 374.396 99.814C358.798 84.188 334.709 83.333 318.18 95.68C316.157 91.661 313.499 87.94 310.237 84.659C310.2 84.621 310.163 84.583 310.125 84.546C293.295 67.702 266.019 67.674 249.151 84.542L180.946 152.748C172.045 147.027 161.471 143.693 150.126 143.693H150.102C142.923 143.693 136.061 145.73 130.159 149.515C106.725 119.397 51.2371 119.476 48.7761 165.496V307.635L21.0361 335.375C18.2231 338.187 16.6421 342.003 16.6421 345.981V497C16.6421 505.284 23.3581 512 31.6421 512H200.342C204.32 512 208.134 510.42 210.947 507.607L239.229 479.332C276.439 477.776 311.199 462.544 337.697 436.045L425.509 348.233C442.321 331.423 442.321 304.067 425.501 287.246ZM270.362 105.755C275.475 100.644 283.721 100.632 288.841 105.692C288.868 105.719 288.895 105.747 288.922 105.773C294.039 110.89 294.024 119.162 288.949 124.269L207.307 205.906V200.884C207.307 191.578 205.059 182.793 201.099 175.019L270.362 105.755ZM46.6411 352.194L74.3811 324.454C77.1941 321.642 78.7741 317.826 78.7741 313.848V165.496C78.7741 161.646 81.8801 158.436 85.8571 158.436C100.846 158.436 113.04 170.634 113.04 185.627V322.89L46.6401 389.289L46.6411 352.194ZM404.297 327.021L316.485 414.833C294.152 437.166 264.463 449.466 232.885 449.466C228.907 449.466 225.093 451.046 222.28 453.859L194.129 482H46.6411V431.716L138.647 339.71C141.46 336.898 143.041 333.082 143.041 329.104V180.752C143.041 176.947 146.118 173.692 150.101 173.692C165.183 173.692 177.308 185.949 177.308 200.882V242.117C177.308 248.184 180.963 253.653 186.568 255.975C192.173 258.295 198.625 257.013 202.915 252.723L334.639 121.008C339.711 115.928 348.018 115.855 353.182 121.025C358.234 126.071 358.38 134.362 353.173 139.562L248.089 244.654C242.231 250.511 242.231 260.009 248.089 265.867C253.946 271.724 263.444 271.724 269.302 265.867C269.302 265.867 269.35 265.819 269.445 265.725L385.761 149.408C390.849 144.322 399.115 144.298 404.23 149.348C404.257 149.376 404.286 149.405 404.313 149.432C409.42 154.54 409.42 162.851 404.313 167.959L287.853 284.42C281.996 290.277 281.997 299.774 287.854 305.633C293.713 311.49 303.209 311.489 309.067 305.632L403.062 211.637C408.167 206.802 416.246 206.87 421.271 211.834C421.298 211.861 421.325 211.889 421.352 211.916C426.47 217.032 426.474 225.319 421.352 230.442L327.612 324.174C321.754 330.031 321.753 339.528 327.609 345.387C333.466 351.244 342.963 351.247 348.822 345.39L385.761 308.458C398.501 296.641 416.114 314.276 404.297 327.021Z" fill="#704EFD"/>
<path d="M490.965 453.103L451.705 413.852C445.848 407.995 436.35 407.995 430.492 413.854C424.635 419.712 424.636 429.21 430.494 435.067L469.754 474.318C475.611 480.175 485.109 480.175 490.967 474.316C496.824 468.457 496.823 458.959 490.965 453.103Z" fill="#704EFD"/>
<path d="M125.139 98.1481C130.996 104.005 140.494 104.005 146.352 98.1461C152.209 92.2881 152.208 82.7911 146.35 76.9331L107.091 37.6821C101.233 31.8241 91.735 31.8261 85.878 37.6841C80.021 43.542 80.022 53.0391 85.88 58.8971L125.139 98.1481Z" fill="#704EFD"/>
<path d="M399.595 452.907C397.449 444.904 389.215 440.16 381.223 442.303C373.221 444.449 368.473 452.674 370.619 460.675L381.4 500.89C383.645 509.26 392.147 513.54 399.772 511.494C407.774 509.348 412.522 501.123 410.376 493.122L399.595 452.907Z" fill="#704EFD"/>
<path d="M177.249 59.103C179.277 66.666 187.188 71.968 195.622 69.707C203.623 67.562 208.371 59.337 206.226 51.335L195.445 11.12C193.3 3.12003 185.073 -1.63197 177.073 0.516029C169.071 2.66103 164.323 10.886 166.469 18.888L177.249 59.103Z" fill="#704EFD"/>
</g>
<defs>
<clipPath id="clip0_22_2">
<rect width="512" height="512" fill="white"/>
</clipPath>
</defs>
</svg>
