<svg xmlns="http://www.w3.org/2000/svg" width="16.778" height="16.778" viewBox="0 0 16.778 16.778">
  <g id="confirm" transform="translate(66.616 -0.384)">
    <path id="Trazado_7510" data-name="Trazado 7510" d="M8.389,0A8.389,8.389,0,1,1,0,8.389,8.389,8.389,0,0,1,8.389,0Z" transform="translate(-66.616 0.384)" fill="#4aa58c"/>
    <path id="Trazado_7507" data-name="Trazado 7507" d="M139.237,186.388l-.377-.377a.4.4,0,0,0-.552,0l-3.811,3.811-2.343-2.343a.4.4,0,0,0-.552,0l-.391.377a.4.4,0,0,0,0,.552l3,3a.4.4,0,0,0,.552,0h0l.35-.35.027-.027,4.094-4.094A.4.4,0,0,0,139.237,186.388Z" transform="translate(-193.437 -179.393)" fill="#f4efef"/>
  </g>
</svg>
