<svg id="Grupo_1174" data-name="Grupo 1174" xmlns="http://www.w3.org/2000/svg" xmlns:xlink="http://www.w3.org/1999/xlink" width="118.432" height="37.024" viewBox="0 0 118.432 37.024">
  <defs>
    <clipPath id="clip-path">
      <rect id="Rectángulo_1489" data-name="Rectángulo 1489" width="118.432" height="37.024" fill="none"/>
    </clipPath>
  </defs>
  <g id="Grupo_1173" data-name="Grupo 1173" clip-path="url(#clip-path)">
    <path id="Trazado_3570" data-name="Trazado 3570" d="M564.126,90.473H550.475a5.536,5.536,0,0,0,.624,2.067,5.463,5.463,0,0,0,4.176,3,5.36,5.36,0,0,0,4.995-1.894c.187-.21.331-.457.506-.679a.347.347,0,0,1,.213-.141c.826-.009,1.652,0,2.478,0,.013,0,.026.012.057.026a6.855,6.855,0,0,1-.894,1.563,7.821,7.821,0,0,1-4.677,3.078,7.932,7.932,0,0,1-7.99-2.51A7.3,7.3,0,0,1,548,89.135a7.692,7.692,0,0,1,5.156-6.768,8.1,8.1,0,0,1,10.47,4.552,7.92,7.92,0,0,1,.534,3.341c0,.062-.017.123-.03.213m-2.613-2.132a5.573,5.573,0,0,0-10.9,0Z" transform="translate(-464.318 -69.32)"/>
    <path id="Trazado_3571" data-name="Trazado 3571" d="M326.05,90.533H312.341a14.054,14.054,0,0,0,.432,1.506,5.545,5.545,0,0,0,9.862,1.066.438.438,0,0,1,.435-.229c.785.011,1.571,0,2.416,0-.206.38-.371.734-.579,1.061a7.955,7.955,0,0,1-5.1,3.632,8.1,8.1,0,0,1-9.764-6.128,7.94,7.94,0,0,1,5.328-9.14,8.039,8.039,0,0,1,10.7,8.011c0,.061-.016.123-.028.216M312.542,88.4h10.892a5.572,5.572,0,0,0-10.892,0" transform="translate(-262.575 -69.381)"/>
    <path id="Trazado_3572" data-name="Trazado 3572" d="M448.719,86.789h-.275c-.693,0-1.385-.006-2.077,0a.429.429,0,0,1-.4-.208,5.818,5.818,0,0,0-4.232-2.488,5.615,5.615,0,0,0-5.974,3.86,5.875,5.875,0,0,0,3.367,7.4,5.8,5.8,0,0,0,6.757-2.141.424.424,0,0,1,.4-.213c.708.012,1.416,0,2.124,0h.319c-.214.375-.378.711-.585,1.018a8.137,8.137,0,0,1-5.6,3.671,7.954,7.954,0,0,1-7.369-2.387,7.513,7.513,0,0,1-2.18-5.495,7.926,7.926,0,0,1,6.258-7.663,8.255,8.255,0,0,1,8.186,2.662,7.567,7.567,0,0,1,1.231,1.831c.016.033.027.069.054.138" transform="translate(-366.9 -69.438)"/>
    <path id="Trazado_3573" data-name="Trazado 3573" d="M730.829,51.847h2.447v4.995h4.432v2.121h-4.426v.281q0,3.239,0,6.48a4.318,4.318,0,0,0,3.443,4.378c.317.076.649.1.985.145v2.11c-.394-.039-.787-.047-1.166-.119a6.719,6.719,0,0,1-5.268-4.214,5.853,5.853,0,0,1-.445-2.247q-.008-6.869,0-13.738Z" transform="translate(-619.279 -43.933)"/>
    <path id="Trazado_3574" data-name="Trazado 3574" d="M676.989,81.947v2.1c-.245.028-.491.052-.736.085a4.31,4.31,0,0,0-3.646,3.668,6.491,6.491,0,0,0-.047.774q0,4.276,0,8.552v.288h-2.438c-.006-.058-.017-.117-.017-.177,0-2.89-.044-5.78.013-8.669a6.44,6.44,0,0,1,3.933-5.985,6.563,6.563,0,0,1,2.94-.632" transform="translate(-567.809 -69.439)"/>
    <path id="Trazado_3575" data-name="Trazado 3575" d="M26.788,84.615H13.336A13.352,13.352,0,0,1,0,71.278V69.5A13.352,13.352,0,0,1,13.336,56.163H26.788v2.819H13.336A10.53,10.53,0,0,0,2.819,69.5v1.778A10.53,10.53,0,0,0,13.336,81.8H26.788Z" transform="translate(0 -47.591)" fill="#b4008d"/>
    <path id="Trazado_3576" data-name="Trazado 3576" d="M126.794,67.511h-9.021a1.409,1.409,0,0,1,0-2.818h9.021a2.856,2.856,0,1,0,0-5.712h-6.617a1.409,1.409,0,0,1,0-2.818h6.617a5.674,5.674,0,0,1,0,11.348" transform="translate(-98.604 -47.591)" fill="#502c84"/>
    <path id="Trazado_3577" data-name="Trazado 3577" d="M70.243,123.4H61.222a5.674,5.674,0,1,1,0-11.348h9.021a1.409,1.409,0,1,1,0,2.818H61.222a2.856,2.856,0,1,0,0,5.712h9.021a1.409,1.409,0,1,1,0,2.818" transform="translate(-47.069 -94.95)" fill="#00ae8d"/>
    <path id="Trazado_3578" data-name="Trazado 3578" d="M124.606,59.009H127.5V56.2h-1.224Z" transform="translate(-105.587 -47.619)" fill="#502c84"/>
    <path id="Trazado_3579" data-name="Trazado 3579" d="M152.27,112.052h-2.894v2.813H150.6Z" transform="translate(-126.576 -94.949)" fill="#00ae8d"/>
    <path id="Trazado_3580" data-name="Trazado 3580" d="M115.682,28.451H104.228V25.633h11.454A10.53,10.53,0,0,0,126.2,15.115V13.336A10.53,10.53,0,0,0,115.682,2.819H102.23V0h13.452a13.352,13.352,0,0,1,13.337,13.336v1.779a13.352,13.352,0,0,1-13.337,13.336" transform="translate(-86.626)" fill="#008fbe"/>
    <path id="Trazado_3581" data-name="Trazado 3581" d="M97.223,170.784h2.894v-2.813H98.893Z" transform="translate(-82.383 -142.333)" fill="#008fbe"/>
  </g>
</svg>
