<svg id="Grupo_1177" data-name="Grupo 1177" xmlns="http://www.w3.org/2000/svg" xmlns:xlink="http://www.w3.org/1999/xlink" width="393.639" height="123.059" viewBox="0 0 393.639 123.059">
  <defs>
    <clipPath id="clip-path">
      <rect id="Rectángulo_1489" data-name="Rectángulo 1489" width="393.639" height="123.059" fill="none"/>
    </clipPath>
  </defs>
  <g id="Grupo_1173" data-name="Grupo 1173" clip-path="url(#clip-path)">
    <path id="Trazado_3570" data-name="Trazado 3570" d="M601.7,110.614H556.33a18.4,18.4,0,0,0,2.074,6.87c3,5.562,7.6,9.066,13.88,9.968,6.612.948,12.17-1.313,16.6-6.295.621-.7,1.1-1.519,1.683-2.256a1.153,1.153,0,0,1,.707-.467c2.744-.03,5.49-.013,8.235-.009.043,0,.087.041.189.087a22.776,22.776,0,0,1-2.97,5.194,26,26,0,0,1-15.545,10.23c-10.391,2.256-19.355-.5-26.555-8.341a24.267,24.267,0,0,1-6.536-19.429c1.094-10.892,6.983-18.482,17.136-22.494a26.934,26.934,0,0,1,34.8,15.131,26.323,26.323,0,0,1,1.774,11.1c-.01.2-.056.408-.1.709m-8.686-7.087a18.524,18.524,0,0,0-36.213,0Z" transform="translate(-269.968 -40.304)" fill="#fff"/>
    <path id="Trazado_3571" data-name="Trazado 3571" d="M363.642,110.644H318.078a46.732,46.732,0,0,0,1.436,5.005,18.432,18.432,0,0,0,32.779,3.544,1.456,1.456,0,0,1,1.445-.76c2.611.037,5.221.015,8.031.015-.684,1.263-1.234,2.441-1.924,3.527a26.439,26.439,0,0,1-16.94,12.072,26.913,26.913,0,0,1-32.455-20.366c-2.813-12.96,4.851-26.06,17.708-30.379a26.721,26.721,0,0,1,35.575,26.626c-.007.2-.052.408-.092.718m-44.9-7.1h36.2a18.521,18.521,0,0,0-36.2,0" transform="translate(-152.668 -40.34)" fill="#fff"/>
    <path id="Trazado_3572" data-name="Trazado 3572" d="M485.27,98.042h-.915c-2.3,0-4.6-.02-6.9.015a1.428,1.428,0,0,1-1.338-.69A19.338,19.338,0,0,0,462.048,89.1a18.661,18.661,0,0,0-19.856,12.831,19.528,19.528,0,0,0,11.192,24.611,19.277,19.277,0,0,0,22.459-7.115,1.409,1.409,0,0,1,1.33-.707c2.353.039,4.707.015,7.061.015H485.3c-.71,1.245-1.258,2.362-1.944,3.384a27.045,27.045,0,0,1-18.625,12.2c-9.495,1.579-17.763-1.03-24.492-7.933a24.972,24.972,0,0,1-7.244-18.262,26.345,26.345,0,0,1,20.8-25.47C464.5,80.416,473.582,83.52,481,91.5a25.143,25.143,0,0,1,4.093,6.085c.054.111.091.23.18.458" transform="translate(-213.326 -40.373)" fill="#fff"/>
    <path id="Trazado_3573" data-name="Trazado 3573" d="M730.831,51.847h8.134v16.6H753.7V75.5H738.986v.933q0,10.767,0,21.537a14.352,14.352,0,0,0,11.444,14.552c1.054.252,2.156.321,3.275.482v7.014c-1.311-.13-2.615-.156-3.876-.4-8.3-1.584-14.248-6.145-17.511-14.007a19.46,19.46,0,0,1-1.479-7.469q-.026-22.83-.009-45.66Z" transform="translate(-360.066 -25.544)" fill="#fff"/>
    <path id="Trazado_3574" data-name="Trazado 3574" d="M693.029,81.947v6.968c-.814.093-1.633.172-2.447.284a14.324,14.324,0,0,0-12.118,12.192,21.556,21.556,0,0,0-.156,2.571q-.013,14.212-.005,28.425v.957h-8.1c-.019-.193-.058-.39-.058-.588,0-9.6-.144-19.212.043-28.815.182-9.263,4.79-15.853,13.072-19.893a21.813,21.813,0,0,1,9.773-2.1" transform="translate(-330.14 -40.374)" fill="#fff"/>
    <path id="Trazado_3575" data-name="Trazado 3575" d="M89.036,150.73H44.326A44.378,44.378,0,0,1,0,106.4v-5.911A44.378,44.378,0,0,1,44.326,56.163h44.71v9.369H44.326A35,35,0,0,0,9.369,100.491V106.4a35,35,0,0,0,34.958,34.959h44.71Z" transform="translate(0 -27.671)" fill="#b4008d"/>
    <path id="Trazado_3576" data-name="Trazado 3576" d="M151.03,93.881H121.048a4.683,4.683,0,0,1,0-9.367H151.03a9.492,9.492,0,1,0,0-18.984H129.036a4.684,4.684,0,0,1,0-9.367H151.03a18.859,18.859,0,0,1,0,37.718" transform="translate(-57.331 -27.671)" fill="#fff"/>
    <path id="Trazado_3577" data-name="Trazado 3577" d="M104.39,149.771H74.408a18.859,18.859,0,1,1,0-37.718H104.39a4.684,4.684,0,1,1,0,9.367H74.408a9.492,9.492,0,1,0,0,18.984H104.39a4.683,4.683,0,1,1,0,9.367" transform="translate(-27.367 -55.207)" fill="#00ae8d"/>
    <path id="Trazado_3578" data-name="Trazado 3578" d="M124.606,65.546h9.619V56.2h-4.069Z" transform="translate(-61.391 -27.687)" fill="#fff"/>
    <path id="Trazado_3579" data-name="Trazado 3579" d="M158.995,112.052h-9.619v9.35h4.069Z" transform="translate(-73.595 -55.206)" fill="#00ae8d"/>
    <path id="Trazado_3580" data-name="Trazado 3580" d="M146.94,94.565H108.869V85.2H146.94A35,35,0,0,0,181.9,50.239V44.326A35,35,0,0,0,146.94,9.369H102.23V0h44.71a44.377,44.377,0,0,1,44.328,44.326v5.913A44.377,44.377,0,0,1,146.94,94.565" transform="translate(-50.367)" fill="#008fbe"/>
    <path id="Trazado_3581" data-name="Trazado 3581" d="M97.223,177.321h9.619v-9.35h-4.069Z" transform="translate(-47.9 -82.756)" fill="#008fbe"/>
  </g>
</svg>
