<svg width="517" height="578" viewBox="0 0 517 578" fill="none" xmlns="http://www.w3.org/2000/svg">
<g clip-path="url(#clip0_13_2)">
<path d="M309.3 225.9H94.7C77 225.9 62.6 211.4 62.6 193.8V-0.0999756" stroke="#B01F8C" stroke-width="23.1"/>
<path d="M309.3 225.9H339.5H426.5C470.4 225.9 505.8 262.1 504.6 306.2C503.5 348.8 467.5 382.2 424.9 382.2H363.7H259.8" stroke="#A42890" stroke-width="23.1"/>
<path d="M259.8 330.6H426.1C441 330.6 453.1 318.5 453.1 303.6C453.1 288.6 441 276.5 426.1 276.5H94.3C48.8 276.5 11.6 239.3 11.6 193.8V-0.0999756" stroke="#009AC0" stroke-width="23.1"/>
<path d="M369.9 382.2H251C233.3 382.2 218.9 396.6 218.9 414.3V746.1C218.9 790 182.7 825.5 138.5 824.3C95.9 823.1 62.6 787.1 62.6 744.5V683.4V579.4" stroke="#A42890" stroke-width="23.1"/>
<path d="M114.1 578.9V745.1C114.1 760.1 126.2 772.2 141.2 772.2C156.1 772.2 168.2 760.1 168.2 745.1V413.3C168.2 367.8 205.4 330.6 250.9 330.6H363.6" stroke="#02AA90" stroke-width="23.1"/>
</g>
<defs>
<clipPath id="clip0_13_2">
<rect width="517" height="578" fill="white"/>
</clipPath>
</defs>
</svg>
