<svg id="Grupo_481" data-name="Grupo 481" xmlns="http://www.w3.org/2000/svg" width="19.349" height="21.989" viewBox="0 0 19.349 21.989">
  <path id="Trazado_2939" data-name="Trazado 2939" d="M766.651,692.272a9.692,9.692,0,0,1-4-18.5,1.472,1.472,0,0,1,1.068.037.83.83,0,0,1,.27.763,1.423,1.423,0,0,1-.671.718,7.937,7.937,0,0,0-4.116,4.487,7.973,7.973,0,1,0,15.318,4.122,7.934,7.934,0,0,0-4.545-8.592,4.053,4.053,0,0,1-.43-.2.8.8,0,0,1-.35-1.093.751.751,0,0,1,1.044-.426,14.189,14.189,0,0,1,2.645,1.593,9.228,9.228,0,0,1,3.155,9.624,9.417,9.417,0,0,1-7.213,7.255,7.085,7.085,0,0,1-1.131.2C767.353,692.3,767,692.272,766.651,692.272Z" transform="translate(-757 -670.293)" fill="#fff"/>
  <path id="Trazado_2940" data-name="Trazado 2940" d="M768.45,670c.472,0,.944-.011,1.415,0a.8.8,0,0,1,.828.786.83.83,0,0,1-.8.883c-.541.028-1.085.024-1.624,0-.33-.012-.467.082-.463.445.016,1.708.01,3.417,0,5.125a.4.4,0,0,0,.358.471,4.9,4.9,0,0,1,3.872,4.754,4.952,4.952,0,0,1-3.669,4.977,5.008,5.008,0,0,1-2.781-9.619.671.671,0,0,0,.578-.8c-.028-1.993-.014-3.987-.012-5.979,0-.793.253-1.05,1.028-1.053C767.612,670,768.031,670,768.45,670Zm-1.382,9.362a3.2,3.2,0,0,0-3.251,3.344,3.271,3.271,0,0,0,3.3,3.222,3.332,3.332,0,0,0,3.25-3.348A3.264,3.264,0,0,0,767.068,679.366Z" transform="translate(-757.424 -670)" fill="#fff"/>
  <path id="Trazado_2941" data-name="Trazado 2941" d="M768.368,683.719a.933.933,0,0,1-.92.9.914.914,0,1,1,.028-1.828A.943.943,0,0,1,768.368,683.719Z" transform="translate(-757.799 -671.072)" fill="#fff"/>
</svg>
