<svg width="512" height="512" viewBox="0 0 512 512" fill="none" xmlns="http://www.w3.org/2000/svg">
<g clip-path="url(#clip0_19_151)">
<path d="M256 0C114.841 0 0 114.841 0 256C0 397.159 114.841 512 256 512C397.159 512 512 397.159 512 256C512 114.841 397.159 0 256 0ZM256 488C128.075 488 24 383.925 24 256C24 128.075 128.075 24 256 24C383.925 24 488 128.075 488 256C488 383.925 383.925 488 256 488ZM376.312 150.5H135.687C119.593 150.5 106.499 163.594 106.499 179.688V332.313C106.499 348.407 119.592 361.501 135.687 361.501H376.312C392.406 361.501 405.5 348.407 405.5 332.313V179.688C405.5 163.594 392.406 150.5 376.312 150.5ZM358.223 174.5L256 255.677L153.776 174.5H358.223ZM376.312 337.5H135.687C132.827 337.5 130.499 335.173 130.499 332.312V186.662L248.537 280.397C250.722 282.132 253.361 283 255.999 283C258.637 283 261.277 282.133 263.461 280.397L381.5 186.662V332.312C381.5 335.173 379.172 337.5 376.312 337.5Z" fill="#B01F8C"/>
</g>
<defs>
<clipPath id="clip0_19_151">
<rect width="512" height="512" fill="white"/>
</clipPath>
</defs>
</svg>
