<svg width="512" height="512" viewBox="0 0 512 512" fill="none" xmlns="http://www.w3.org/2000/svg">
<path d="M360.528 379.2L283.248 346.24C282.213 345.799 281.097 345.58 279.972 345.6C278.847 345.619 277.739 345.875 276.72 346.352C263.284 352.649 252.469 363.441 246.144 376.864C219.468 367.957 195.222 352.984 175.311 333.123C155.4 313.262 140.366 289.053 131.392 262.4C144.8 256.096 155.623 245.358 162.032 232C162.523 230.975 162.79 229.856 162.815 228.719C162.84 227.583 162.622 226.454 162.176 225.408L129.056 147.808C128.586 146.727 127.895 145.757 127.027 144.961C126.159 144.164 125.133 143.559 124.016 143.184C117.645 141.079 110.981 139.999 104.272 139.984C87.2622 140.005 70.9552 146.772 58.9274 158.799C46.8997 170.827 40.1332 187.134 40.112 204.144C39.7086 272.986 66.3755 339.228 114.363 388.59C162.35 437.951 227.814 466.477 296.64 468.016C299.072 468.208 301.664 468.208 304.096 468.208C306.528 468.208 309.136 468.208 311.936 468C327.475 466.101 341.781 458.581 352.156 446.858C362.532 435.136 368.258 420.022 368.256 404.368C368.299 397.76 367.266 391.189 365.2 384.912C364.937 383.655 364.375 382.479 363.562 381.485C362.749 380.491 361.708 379.707 360.528 379.2ZM310.4 452.064C308.368 452.224 306.256 452.224 304.112 452.208C302.208 452.208 299.872 452.208 297.44 452.048C232.737 450.672 171.168 423.914 126.018 377.548C80.8671 331.182 55.7538 268.925 56.096 204.208C56.1007 196.903 57.7659 189.695 60.966 183.128C64.166 176.561 68.817 170.808 74.5674 166.303C80.3178 161.797 87.0171 158.659 94.159 157.123C101.301 155.588 108.698 155.696 115.792 157.44L145.984 228.192C140.013 238.547 130.421 246.327 119.056 250.032C117.077 250.679 115.429 252.073 114.461 253.916C113.493 255.759 113.282 257.907 113.872 259.904C123.198 291.847 140.43 320.921 163.972 344.438C187.514 367.956 216.607 385.156 248.56 394.448C250.559 395.038 252.708 394.824 254.552 393.853C256.396 392.882 257.788 391.23 258.432 389.248C262.134 377.884 269.976 368.328 280.4 362.48L350.8 392.496C351.811 396.372 352.311 400.363 352.288 404.368C352.309 416.055 348.066 427.348 340.354 436.129C332.642 444.91 321.992 450.576 310.4 452.064Z" fill="#B01F8C"/>
<path d="M228.576 118.048C226.454 118.048 224.419 118.891 222.919 120.391C221.419 121.891 220.576 123.926 220.576 126.048C220.576 128.17 221.419 130.205 222.919 131.705C224.419 133.205 226.454 134.048 228.576 134.048C265.611 134.09 301.117 148.822 327.304 175.012C353.49 201.201 368.218 236.709 368.256 273.744C368.256 275.866 369.099 277.901 370.599 279.401C372.099 280.901 374.134 281.744 376.256 281.744C378.378 281.744 380.413 280.901 381.913 279.401C383.413 277.901 384.256 275.866 384.256 273.744C384.209 232.468 367.793 192.895 338.608 163.707C309.423 134.519 269.852 118.099 228.576 118.048Z" fill="#B01F8C"/>
<path d="M228.576 182.048C252.885 182.078 276.189 191.748 293.377 208.939C310.564 226.129 320.231 249.435 320.256 273.744C320.256 275.866 321.099 277.901 322.599 279.401C324.099 280.901 326.134 281.744 328.256 281.744C330.378 281.744 332.413 280.901 333.913 279.401C335.413 277.901 336.256 275.866 336.256 273.744C336.226 245.193 324.873 217.82 304.686 197.63C284.498 177.44 257.127 166.082 228.576 166.048C226.454 166.048 224.419 166.891 222.919 168.391C221.419 169.891 220.576 171.926 220.576 174.048C220.576 176.17 221.419 178.205 222.919 179.705C224.419 181.205 226.454 182.048 228.576 182.048Z" fill="#B01F8C"/>
<path d="M228.576 230.048C240.158 230.065 251.261 234.675 259.449 242.866C267.638 251.057 272.243 262.162 272.256 273.744C272.256 275.866 273.099 277.901 274.599 279.401C276.099 280.901 278.134 281.744 280.256 281.744C282.378 281.744 284.413 280.901 285.913 279.401C287.413 277.901 288.256 275.866 288.256 273.744C288.239 257.92 281.946 242.748 270.758 231.557C259.57 220.366 244.4 214.069 228.576 214.048C226.454 214.048 224.419 214.891 222.919 216.391C221.419 217.891 220.576 219.926 220.576 222.048C220.576 224.17 221.419 226.205 222.919 227.705C224.419 229.205 226.454 230.048 228.576 230.048Z" fill="#B01F8C"/>
</svg>
