<svg width="683" height="683" viewBox="0 0 683 683" fill="none" xmlns="http://www.w3.org/2000/svg">
<g clip-path="url(#clip0_35_2)">
<mask id="mask0_35_2" style="mask-type:luminance" maskUnits="userSpaceOnUse" x="0" y="0" width="683" height="683">
<path d="M682.667 0H0V682.667H682.667V0Z" fill="white"/>
</mask>
<g mask="url(#mask0_35_2)">
<path d="M341.333 682.667C152.818 682.667 0 529.844 0 341.333C0 152.818 152.818 0 341.333 0C529.844 0 682.667 152.818 682.667 341.333C682.443 529.755 529.755 682.443 341.333 682.667ZM341.333 42.6667C176.385 42.6667 42.6667 176.385 42.6667 341.333C42.6667 506.281 176.385 640 341.333 640C506.281 640 640 506.281 640 341.333C639.823 176.458 506.208 42.8438 341.333 42.6667Z" fill="#502C84"/>
<path d="M234.667 512C229.01 512 223.583 509.75 219.583 505.75L134.25 420.417C126.068 411.943 126.302 398.438 134.776 390.25C143.042 382.266 156.151 382.266 164.417 390.25L234.667 460.5L498.432 196.734C506.906 188.552 520.411 188.786 528.599 197.26C536.583 205.526 536.583 218.635 528.599 226.901L249.75 505.75C245.75 509.75 240.323 512 234.667 512Z" fill="#502C84"/>
</g>
</g>
<defs>
<clipPath id="clip0_35_2">
<rect width="683" height="683" fill="white"/>
</clipPath>
</defs>
</svg>
