<svg width="910" height="910" viewBox="0 0 910 910" fill="none" xmlns="http://www.w3.org/2000/svg">
<path fill-rule="evenodd" clip-rule="evenodd" d="M756.221 151.862C676.465 72.0129 570.397 28.0195 457.398 27.9727C224.553 27.9727 35.0508 217.47 34.9571 450.377C34.9259 524.831 54.3756 597.51 91.3447 661.572L31.4137 880.473L255.356 821.728C317.062 855.388 386.53 873.126 457.227 873.146H457.404C690.223 873.146 879.746 683.634 879.834 450.716C879.881 337.836 835.981 231.706 756.221 151.862ZM457.398 801.805H457.253C394.252 801.779 332.463 784.847 278.547 752.863L265.732 745.251L132.841 780.112L168.311 650.546L159.96 637.262C124.812 581.359 106.252 516.745 106.283 450.403C106.356 256.817 263.869 99.3196 457.539 99.3196C551.322 99.3508 639.481 135.919 705.77 202.287C772.06 268.654 808.545 356.87 808.513 450.69C808.43 644.292 650.928 801.805 457.398 801.805ZM649.991 538.838C639.439 533.551 587.542 508.024 577.864 504.496C568.196 500.974 561.151 499.22 554.121 509.783C547.081 520.346 526.856 544.124 520.696 551.164C514.535 558.21 508.385 559.094 497.828 553.808C487.27 548.526 453.262 537.376 412.942 501.416C381.566 473.428 360.384 438.863 354.223 428.3C348.073 417.727 354.171 412.565 358.854 406.759C370.28 392.569 381.722 377.693 385.24 370.653C388.762 363.608 386.998 357.442 384.355 352.161C381.722 346.88 360.613 294.925 351.819 273.784C343.244 253.211 334.55 255.989 328.066 255.667C321.916 255.36 314.876 255.297 307.836 255.297C300.801 255.297 289.365 257.935 279.687 268.508C270.014 279.076 242.749 304.608 242.749 356.563C242.749 408.517 280.571 458.708 285.847 465.753C291.123 472.798 360.28 579.413 466.161 625.129C491.344 636.014 511.002 642.502 526.336 647.367C551.624 655.401 574.628 654.267 592.818 651.551C613.1 648.517 655.262 626.013 664.066 601.36C672.86 576.702 672.86 555.572 670.216 551.164C667.583 546.762 660.544 544.124 649.991 538.838Z" fill="#B01F8C"/>
</svg>
