<svg width="512" height="512" viewBox="0 0 512 512" fill="none" xmlns="http://www.w3.org/2000/svg">
<g clip-path="url(#clip0_31_2)">
<path d="M256 0C114.615 0 0 114.615 0 256C0 397.385 114.615 512 256 512C397.385 512 512 397.385 512 256C511.835 114.683 397.317 0.165 256 0ZM256 490.667C126.397 490.667 21.333 385.603 21.333 256C21.333 126.397 126.397 21.333 256 21.333C385.603 21.333 490.667 126.397 490.667 256C490.52 385.542 385.542 490.52 256 490.667Z" fill="#B01F8C"/>
<path d="M376.683 120.235L256 240.917L135.317 120.235L120.234 135.328L240.917 256L120.235 376.672L135.318 391.765L256 271.083L376.683 391.766L391.766 376.673L271.083 256L391.766 135.328L376.683 120.235Z" fill="#B01F8C"/>
</g>
<defs>
<clipPath id="clip0_31_2">
<rect width="512" height="512" fill="white"/>
</clipPath>
</defs>
</svg>
