<svg width="43" height="38" viewBox="0 0 43 38" fill="none" xmlns="http://www.w3.org/2000/svg">
<path d="M28.19 19.92H19.169C18.7953 19.92 18.4369 19.7716 18.1727 19.5073C17.9084 19.2431 17.76 18.8847 17.76 18.511C17.76 18.1373 17.9084 17.7789 18.1727 17.5147C18.4369 17.2505 18.7953 17.102 19.169 17.102H28.19C28.9475 17.102 29.6739 16.8011 30.2095 16.2655C30.7451 15.7299 31.046 15.0035 31.046 14.246C31.046 13.4885 30.7451 12.7621 30.2095 12.2265C29.6739 11.6909 28.9475 11.39 28.19 11.39H21.573C21.1993 11.39 20.8409 11.2416 20.5767 10.9773C20.3124 10.7131 20.164 10.3547 20.164 9.981C20.164 9.60731 20.3124 9.24893 20.5767 8.98469C20.8409 8.72045 21.1993 8.572 21.573 8.572H28.19C29.6948 8.572 31.138 9.16979 32.2021 10.2339C33.2662 11.298 33.864 12.7412 33.864 14.246C33.864 15.7508 33.2662 17.194 32.2021 18.2581C31.138 19.3222 29.6948 19.92 28.19 19.92Z" fill="#502C84"/>
<path d="M23.174 28.45H14.153C12.6482 28.45 11.205 27.8522 10.1409 26.7881C9.0768 25.724 8.479 24.2808 8.479 22.776C8.479 21.2712 9.0768 19.828 10.1409 18.7639C11.205 17.6998 12.6482 17.102 14.153 17.102H23.174C23.5477 17.102 23.9061 17.2504 24.1703 17.5147C24.4346 17.7789 24.583 18.1373 24.583 18.511C24.583 18.8847 24.4346 19.2431 24.1703 19.5073C23.9061 19.7716 23.5477 19.92 23.174 19.92H14.153C13.3955 19.92 12.6691 20.2209 12.1335 20.7565C11.5979 21.2921 11.297 22.0185 11.297 22.776C11.297 23.5335 11.5979 24.2599 12.1335 24.7955C12.6691 25.3311 13.3955 25.632 14.153 25.632H23.174C23.5477 25.632 23.9061 25.7805 24.1703 26.0447C24.4346 26.3089 24.583 26.6673 24.583 27.041C24.583 27.4147 24.4346 27.7731 24.1703 28.0373C23.9061 28.3016 23.5477 28.45 23.174 28.45Z" fill="#00AE8D"/>
<path d="M26.788 37.024H13.336C9.8002 37.0198 6.41044 35.6132 3.91035 33.1129C1.41025 30.6127 0.00396968 27.2228 0 23.687V21.909C0.00396968 18.3732 1.41025 14.9833 3.91035 12.4831C6.41044 9.98277 9.8002 8.57623 13.336 8.572H26.788V11.391H13.336C10.5476 11.3944 7.87441 12.5037 5.9028 14.4755C3.9312 16.4473 2.82218 19.1206 2.819 21.909V23.687C2.82112 26.4761 3.92968 29.1504 5.90139 31.1231C7.87311 33.0957 10.5469 34.2056 13.336 34.209H26.788V37.024Z" fill="#B4008D"/>
<path d="M29.056 28.451H17.602V25.633H29.056C31.8446 25.6298 34.518 24.5207 36.4898 22.5488C38.4617 20.577 39.5708 17.9036 39.574 15.115V13.336C39.5706 10.5476 38.4613 7.87441 36.4895 5.9028C34.5177 3.9312 31.8444 2.82218 29.056 2.819H15.604V0H29.056C32.5918 0.00396968 35.9817 1.41025 38.4819 3.91035C40.9822 6.41044 42.3888 9.8002 42.393 13.336V15.115C42.3888 18.6508 40.9822 22.0406 38.4819 24.5407C35.9817 27.0407 32.5918 28.447 29.056 28.451Z" fill="#008FBE"/>
</svg>
