<svg width="119" height="38" viewBox="0 0 119 38" fill="none" xmlns="http://www.w3.org/2000/svg">
<g clip-path="url(#clip0_1_32)">
<path d="M99.808 21.153H86.157C86.2273 21.8763 86.4394 22.5786 86.781 23.22C87.1774 24.0244 87.7657 24.7188 88.494 25.242C89.2223 25.7652 90.0682 26.1011 90.957 26.22C91.8825 26.3686 92.8308 26.272 93.7073 25.9396C94.5838 25.6073 95.3578 25.0509 95.952 24.326C96.139 24.116 96.283 23.869 96.458 23.647C96.5085 23.5746 96.5847 23.5242 96.671 23.506C97.497 23.497 98.323 23.506 99.149 23.506C99.162 23.506 99.175 23.518 99.206 23.532C98.978 24.09 98.6775 24.6156 98.312 25.095C97.1863 26.663 95.5204 27.7593 93.635 28.173C92.2017 28.5417 90.6937 28.502 89.2818 28.0585C87.8698 27.6149 86.6101 26.7851 85.645 25.663C84.9108 24.8906 84.3546 23.9668 84.0155 22.9565C83.6763 21.9463 83.5625 20.874 83.682 19.815C83.7803 18.3048 84.322 16.8571 85.2391 15.6532C86.1562 14.4494 87.4081 13.5428 88.838 13.047C90.8306 12.2697 93.0498 12.3121 95.0113 13.1649C96.9728 14.0176 98.5174 15.6116 99.308 17.599C99.7246 18.6612 99.9067 19.8009 99.842 20.94C99.842 21.002 99.825 21.063 99.812 21.153M97.1991 19.021C96.9325 17.7733 96.2459 16.6549 95.254 15.8525C94.2621 15.0502 93.0249 14.6124 91.749 14.6124C90.4732 14.6124 89.236 15.0502 88.2441 15.8525C87.2522 16.6549 86.5656 17.7733 86.299 19.021H97.1991Z" fill="white"/>
<path d="M63.475 21.152H49.766C49.8819 21.6616 50.0261 22.1644 50.198 22.658C50.5569 23.6233 51.1774 24.4696 51.9902 25.102C52.8029 25.7344 53.7757 26.128 54.7996 26.2387C55.8234 26.3494 56.8579 26.1727 57.787 25.7286C58.7161 25.2844 59.5032 24.5903 60.06 23.724C60.1013 23.6467 60.1648 23.5835 60.2424 23.5427C60.3199 23.5019 60.4079 23.4853 60.495 23.495C61.28 23.506 62.066 23.495 62.911 23.495C62.705 23.875 62.54 24.229 62.332 24.556C61.7718 25.4749 61.031 26.2706 60.1543 26.8949C59.2777 27.5191 58.2836 27.9591 57.232 28.188C56.1882 28.4338 55.106 28.4699 54.0481 28.2942C52.9902 28.1185 51.9777 27.7345 51.0694 27.1644C50.1611 26.5943 49.375 25.8496 48.7568 24.9734C48.1386 24.0971 47.7005 23.1069 47.468 22.06C47.0777 20.148 47.4052 18.1592 48.388 16.4734C49.3707 14.7875 50.9399 13.5225 52.796 12.92C54.0426 12.4806 55.3783 12.3553 56.6848 12.5553C57.9913 12.7553 59.2284 13.2744 60.2865 14.0666C61.3446 14.8587 62.191 15.8995 62.7508 17.0969C63.3106 18.2942 63.5666 19.6111 63.496 20.931C63.496 20.992 63.48 21.054 63.468 21.147M49.967 19.019H60.859C60.5898 17.7747 59.9026 16.66 58.9117 15.8606C57.9209 15.0612 56.6861 14.6253 55.413 14.6253C54.1399 14.6253 52.9051 15.0612 51.9143 15.8606C50.9234 16.66 50.2362 17.7747 49.967 19.019Z" fill="white"/>
<path d="M81.819 17.351H81.544C80.851 17.351 80.159 17.345 79.467 17.351C79.3876 17.3569 79.3081 17.3405 79.2375 17.3038C79.1668 17.267 79.1078 17.2114 79.067 17.143C78.5855 16.4449 77.9573 15.8606 77.2263 15.4308C76.4952 15.001 75.6791 14.7362 74.835 14.655C73.5467 14.5098 72.2478 14.8149 71.1589 15.5185C70.07 16.2221 69.258 17.2808 68.861 18.515C68.3599 19.9446 68.4304 21.5126 69.0578 22.8915C69.6852 24.2703 70.821 25.3536 72.228 25.915C73.4325 26.3554 74.749 26.3842 75.9716 25.9968C77.1942 25.6094 78.2539 24.8277 78.985 23.774C79.0247 23.7043 79.0834 23.6473 79.1542 23.6096C79.225 23.5719 79.305 23.555 79.385 23.561C80.093 23.573 80.801 23.561 81.509 23.561H81.828C81.614 23.936 81.45 24.272 81.243 24.579C80.6234 25.5531 79.8036 26.3843 78.8381 27.0172C77.8726 27.6502 76.7834 28.0704 75.643 28.25C74.3131 28.5131 72.938 28.4319 71.6483 28.0141C70.3586 27.5964 69.1971 26.8559 68.274 25.863C67.5579 25.1421 66.9955 24.2834 66.6208 23.3389C66.2461 22.3944 66.0669 21.3837 66.094 20.368C66.1134 18.5703 66.7434 16.8326 67.8805 15.4402C69.0177 14.0477 70.5945 13.0832 72.352 12.705C73.8293 12.3528 75.3752 12.4149 76.8194 12.8846C78.2637 13.3542 79.5504 14.2132 80.538 15.367C81.0356 15.9139 81.4503 16.5308 81.769 17.198C81.785 17.231 81.796 17.267 81.823 17.336" fill="white"/>
<path d="M111.55 7.914H113.997V12.909H118.429V15.03H114.003V15.311C114.003 17.4703 114.003 19.6303 114.003 21.791C113.968 22.8097 114.294 23.8081 114.924 24.6093C115.554 25.4106 116.448 25.963 117.446 26.169C117.763 26.245 118.095 26.269 118.431 26.314V28.424C118.037 28.385 117.644 28.377 117.265 28.305C116.093 28.1294 114.989 27.6471 114.064 26.9071C113.139 26.167 112.426 25.1955 111.997 24.091C111.702 23.3786 111.551 22.615 111.552 21.844C111.547 17.2647 111.547 12.6853 111.552 8.106L111.55 7.914Z" fill="white"/>
<path d="M109.18 12.508V14.608C108.935 14.636 108.689 14.66 108.444 14.693C107.521 14.8277 106.667 15.258 106.01 15.9194C105.352 16.5807 104.927 17.4375 104.798 18.361C104.767 18.6178 104.751 18.8763 104.751 19.135C104.751 21.9857 104.751 24.8363 104.751 27.687V27.975H102.313C102.307 27.917 102.296 27.858 102.296 27.798C102.296 24.908 102.252 22.018 102.309 19.129C102.298 17.8541 102.667 16.6048 103.367 15.5394C104.067 14.4739 105.068 13.6403 106.242 13.144C107.16 12.7086 108.166 12.4923 109.182 12.512" fill="white"/>
<path d="M26.788 37.024H13.336C9.8002 37.0198 6.41044 35.6132 3.91035 33.1129C1.41025 30.6127 0.00396968 27.2228 0 23.687V21.909C0.00396968 18.3732 1.41025 14.9833 3.91035 12.483C6.41044 9.98276 9.8002 8.57623 13.336 8.57199H26.788V11.391H13.336C10.5476 11.3944 7.87441 12.5037 5.9028 14.4755C3.9312 16.4473 2.82218 19.1206 2.819 21.909V23.687C2.82112 26.4761 3.92968 29.1504 5.90139 31.1231C7.87311 33.0957 10.5469 34.2056 13.336 34.209H26.788V37.024Z" fill="white"/>
<path d="M28.19 19.92H19.169C18.7953 19.92 18.4369 19.7715 18.1727 19.5073C17.9084 19.2431 17.76 18.8847 17.76 18.511C17.76 18.1373 17.9084 17.7789 18.1727 17.5147C18.4369 17.2504 18.7953 17.102 19.169 17.102H28.19C28.9475 17.102 29.6739 16.8011 30.2095 16.2655C30.7451 15.7299 31.046 15.0035 31.046 14.246C31.046 13.4885 30.7451 12.7621 30.2095 12.2265C29.6739 11.6909 28.9475 11.39 28.19 11.39H21.573C21.1993 11.39 20.8409 11.2415 20.5767 10.9773C20.3124 10.7131 20.164 10.3547 20.164 9.98099C20.164 9.6073 20.3124 9.24892 20.5767 8.98468C20.8409 8.72044 21.1993 8.57199 21.573 8.57199H28.19C29.6948 8.57199 31.138 9.16979 32.2021 10.2339C33.2662 11.2979 33.864 12.7412 33.864 14.246C33.864 15.7508 33.2662 17.194 32.2021 18.2581C31.138 19.3222 29.6948 19.92 28.19 19.92Z" fill="white"/>
<path d="M23.174 28.45H14.153C12.6482 28.45 11.205 27.8522 10.1409 26.7881C9.0768 25.724 8.479 24.2808 8.479 22.776C8.479 21.2712 9.0768 19.828 10.1409 18.7639C11.205 17.6998 12.6482 17.102 14.153 17.102H23.174C23.5477 17.102 23.9061 17.2504 24.1703 17.5147C24.4346 17.7789 24.583 18.1373 24.583 18.511C24.583 18.8847 24.4346 19.2431 24.1703 19.5073C23.9061 19.7716 23.5477 19.92 23.174 19.92H14.153C13.3955 19.92 12.6691 20.2209 12.1335 20.7565C11.5979 21.2921 11.297 22.0185 11.297 22.776C11.297 23.5335 11.5979 24.2599 12.1335 24.7955C12.6691 25.3311 13.3955 25.632 14.153 25.632H23.174C23.5477 25.632 23.9061 25.7805 24.1703 26.0447C24.4346 26.3089 24.583 26.6673 24.583 27.041C24.583 27.4147 24.4346 27.7731 24.1703 28.0373C23.9061 28.3016 23.5477 28.45 23.174 28.45Z" fill="white"/>
<path d="M19.019 11.39H21.913V8.58099H20.689L19.019 11.39Z" fill="white"/>
<path d="M25.694 17.103H22.8V19.916H24.024L25.694 17.103Z" fill="white"/>
<path d="M29.056 28.451H17.602V25.633H29.056C31.8446 25.6298 34.518 24.5207 36.4898 22.5488C38.4617 20.577 39.5708 17.9036 39.574 15.115V13.336C39.5706 10.5476 38.4613 7.87441 36.4895 5.9028C34.5177 3.9312 31.8444 2.82218 29.056 2.819H15.604V0H29.056C32.5918 0.00396968 35.9817 1.41025 38.4819 3.91035C40.9822 6.41044 42.3888 9.8002 42.393 13.336V15.115C42.3888 18.6508 40.9822 22.0406 38.4819 24.5407C35.9817 27.0407 32.5918 28.447 29.056 28.451Z" fill="white"/>
<path d="M14.84 28.451H17.734V25.638H16.51L14.84 28.451Z" fill="white"/>
</g>
<defs>
<clipPath id="clip0_1_32">
<rect width="118.432" height="37.024" fill="white"/>
</clipPath>
</defs>
</svg>
