<svg width="512" height="512" viewBox="0 0 512 512" fill="none" xmlns="http://www.w3.org/2000/svg">
<path d="M168 48H184V64H168V48Z" fill="url(#paint0_angular_106_16)"/>
<path d="M200 48H264V64H200V48Z" fill="url(#paint1_angular_106_16)"/>
<path d="M456 368C448.468 367.97 441.175 370.637 435.44 375.52C432.588 370.791 428.564 366.878 423.757 364.159C418.95 361.44 413.523 360.008 408 360C400.468 359.97 393.175 362.637 387.44 367.52C384.637 362.878 380.701 359.024 376 356.32V72C375.983 57.1531 370.078 42.9191 359.579 32.4207C349.081 21.9224 334.847 16.0169 320 16H144C129.153 16.0169 114.919 21.9224 104.421 32.4207C93.9225 42.9191 88.017 57.1531 88.0001 72V218.08C82.7881 219.773 77.9811 222.522 73.8792 226.156C69.7774 229.79 66.4688 234.23 64.1601 239.2L32.0801 308.72C26.7117 320.271 23.953 332.863 24.0001 345.6V496H40.0001V345.6C39.9706 335.181 42.2377 324.883 46.6401 315.44L78.7201 245.92C80.6946 241.659 83.9352 238.111 88.0001 235.76V376C88.0111 378.652 88.2251 381.3 88.6401 383.92L83.5201 392.8L97.3601 400.8L145.36 317.68C146.36 315.768 147.737 314.078 149.407 312.712C151.078 311.345 153.007 310.331 155.08 309.73C157.152 309.129 159.325 308.953 161.467 309.213C163.609 309.473 165.676 310.164 167.545 311.244C169.413 312.324 171.043 313.771 172.338 315.497C173.633 317.223 174.565 319.194 175.078 321.29C175.591 323.386 175.676 325.564 175.325 327.693C174.975 329.822 174.198 331.859 173.04 333.68L137.04 396C136.345 397.25 135.986 398.66 136 400.091C136.014 401.521 136.4 402.924 137.12 404.16L154.24 432.64C157.992 438.843 159.984 445.951 160 453.2V495.92H176V453.2C175.961 445.927 174.522 438.729 171.76 432H220.32C220.993 434.909 222.07 437.71 223.52 440.32L258 500L271.84 492L237.36 432.32C236.298 430.501 235.61 428.489 235.335 426.401C235.061 424.313 235.205 422.191 235.76 420.16C236.851 416.05 239.526 412.54 243.2 410.4C246.898 408.327 251.252 407.754 255.36 408.8C257.399 409.331 259.309 410.272 260.973 411.565C262.637 412.858 264.021 414.476 265.04 416.32L281.04 444C281.939 445.518 283.306 446.705 284.935 447.383C286.564 448.06 288.369 448.193 290.08 447.76C291.785 447.301 293.29 446.291 294.361 444.887C295.431 443.484 296.008 441.765 296 440V304C296 299.757 297.686 295.687 300.686 292.686C303.687 289.686 307.757 288 312 288C316.244 288 320.313 289.686 323.314 292.686C326.314 295.687 328 299.757 328 304V416C328 418.122 328.843 420.157 330.343 421.657C331.844 423.157 333.878 424 336 424C338.122 424 340.157 423.157 341.657 421.657C343.157 420.157 344 418.122 344 416V384C344 379.757 345.686 375.687 348.686 372.686C351.687 369.686 355.757 368 360 368C364.244 368 368.313 369.686 371.314 372.686C374.314 375.687 376 379.757 376 384V416C376 418.122 376.843 420.157 378.343 421.657C379.844 423.157 381.878 424 384 424C386.122 424 388.157 423.157 389.657 421.657C391.157 420.157 392 418.122 392 416V392C392 387.757 393.686 383.687 396.686 380.686C399.687 377.686 403.757 376 408 376C412.244 376 416.313 377.686 419.314 380.686C422.314 383.687 424 387.757 424 392V416C424 418.122 424.843 420.157 426.343 421.657C427.844 423.157 429.878 424 432 424C434.122 424 436.157 423.157 437.657 421.657C439.157 420.157 440 418.122 440 416V400C440 395.757 441.686 391.687 444.686 388.686C447.687 385.686 451.757 384 456 384C460.244 384 464.313 385.686 467.314 388.686C470.314 391.687 472 395.757 472 400V496H488V400C488 391.513 484.629 383.374 478.628 377.373C472.626 371.371 464.487 368 456 368ZM248 384H216C213.878 384 211.844 383.157 210.343 381.657C208.843 380.157 208 378.122 208 376C208 373.878 208.843 371.843 210.343 370.343C211.844 368.843 213.878 368 216 368H248C250.122 368 252.157 368.843 253.657 370.343C255.157 371.843 256 373.878 256 376C256 378.122 255.157 380.157 253.657 381.657C252.157 383.157 250.122 384 248 384ZM360 352C354.379 352.006 348.86 353.496 344 356.32V304C344 295.513 340.629 287.374 334.628 281.373C328.626 275.371 320.487 272 312 272C303.513 272 295.374 275.371 289.373 281.373C283.372 287.374 280 295.513 280 304V410.16L278.96 408.32C275.324 402.054 269.648 397.225 262.88 394.64C265.712 392.426 268.004 389.598 269.584 386.369C271.164 383.14 271.99 379.595 272 376C271.981 369.641 269.446 363.547 264.95 359.05C260.453 354.554 254.359 352.019 248 352H216C209.635 352 203.53 354.529 199.03 359.029C194.529 363.53 192 369.635 192 376C192 382.365 194.529 388.47 199.03 392.971C203.53 397.471 209.635 400 216 400H230.4C225.486 404.18 221.969 409.763 220.32 416H162.96L153.28 399.92L186.96 341.68C191.204 334.328 192.353 325.592 190.155 317.393C187.957 309.194 182.592 302.203 175.24 297.96C167.888 293.717 159.152 292.567 150.953 294.765C142.754 296.963 135.764 302.328 131.52 309.68L104 357.28V72C104 61.3913 108.214 51.2172 115.716 43.7157C123.217 36.2143 133.391 32 144 32H320C330.609 32 340.783 36.2143 348.284 43.7157C355.786 51.2172 360 61.3913 360 72V352Z" fill="url(#paint2_angular_106_16)"/>
<path d="M328 120H136C131.76 120.013 127.698 121.702 124.7 124.7C121.702 127.698 120.013 131.76 120 136V248C120.013 252.24 121.702 256.302 124.7 259.3C127.698 262.298 131.76 263.987 136 264H328C332.24 263.987 336.302 262.298 339.3 259.3C342.298 256.302 343.987 252.24 344 248V136C343.987 131.76 342.298 127.698 339.3 124.7C336.302 121.702 332.24 120.013 328 120ZM136 136H158.88C157.431 141.497 154.549 146.51 150.53 150.53C146.51 154.549 141.497 157.431 136 158.88V136ZM136 248V225.12C141.497 226.569 146.51 229.451 150.53 233.47C154.549 237.49 157.431 242.503 158.88 248H136ZM328 248H305.12C306.569 242.503 309.451 237.49 313.47 233.47C317.49 229.451 322.503 226.569 328 225.12V248ZM328 208.72C318.185 210.378 309.129 215.051 302.09 222.09C295.051 229.129 290.378 238.185 288.72 248H175.28C173.622 238.185 168.949 229.129 161.91 222.09C154.871 215.051 145.815 210.378 136 208.72V175.28C145.815 173.622 154.871 168.949 161.91 161.91C168.949 154.871 173.622 145.815 175.28 136H288.72C290.378 145.815 295.051 154.871 302.09 161.91C309.129 168.949 318.185 173.622 328 175.28V208.72ZM328 158.88C322.503 157.431 317.49 154.549 313.47 150.53C309.451 146.51 306.569 141.497 305.12 136H328V158.88Z" fill="url(#paint3_angular_106_16)"/>
<path d="M232 160C225.671 160 219.484 161.877 214.222 165.393C208.959 168.909 204.858 173.907 202.436 179.754C200.014 185.601 199.38 192.035 200.615 198.243C201.85 204.45 204.897 210.152 209.373 214.627C213.848 219.103 219.55 222.15 225.757 223.385C231.965 224.62 238.399 223.986 244.246 221.564C250.093 219.142 255.091 215.041 258.607 209.778C262.123 204.516 264 198.329 264 192C264 183.513 260.629 175.374 254.627 169.373C248.626 163.371 240.487 160 232 160ZM232 208C228.836 208 225.742 207.062 223.111 205.304C220.48 203.545 218.429 201.047 217.218 198.123C216.007 195.199 215.69 191.982 216.307 188.879C216.925 185.775 218.449 182.924 220.686 180.686C222.924 178.449 225.775 176.925 228.879 176.307C231.982 175.69 235.199 176.007 238.123 177.218C241.047 178.429 243.545 180.48 245.304 183.111C247.062 185.742 248 188.835 248 192C248 196.243 246.314 200.313 243.314 203.314C240.313 206.314 236.243 208 232 208Z" fill="url(#paint4_angular_106_16)"/>
<defs>
<radialGradient id="paint0_angular_106_16" cx="0" cy="0" r="1" gradientUnits="userSpaceOnUse" gradientTransform="translate(176 56) rotate(90) scale(8)">
<stop stop-color="#B01F8C"/>
<stop offset="1" stop-color="#4F2B83"/>
</radialGradient>
<radialGradient id="paint1_angular_106_16" cx="0" cy="0" r="1" gradientUnits="userSpaceOnUse" gradientTransform="translate(232 56) rotate(90) scale(8 32)">
<stop stop-color="#B01F8C"/>
<stop offset="1" stop-color="#4F2B83"/>
</radialGradient>
<radialGradient id="paint2_angular_106_16" cx="0" cy="0" r="1" gradientUnits="userSpaceOnUse" gradientTransform="translate(256 258) rotate(90) scale(242 232)">
<stop stop-color="#B01F8C"/>
<stop offset="1" stop-color="#4F2B83"/>
</radialGradient>
<radialGradient id="paint3_angular_106_16" cx="0" cy="0" r="1" gradientUnits="userSpaceOnUse" gradientTransform="translate(232 192) rotate(90) scale(72 112)">
<stop stop-color="#B01F8C"/>
<stop offset="1" stop-color="#4F2B83"/>
</radialGradient>
<radialGradient id="paint4_angular_106_16" cx="0" cy="0" r="1" gradientUnits="userSpaceOnUse" gradientTransform="translate(232 192) rotate(90) scale(32)">
<stop stop-color="#B01F8C"/>
<stop offset="1" stop-color="#4F2B83"/>
</radialGradient>
</defs>
</svg>
