<svg width="512" height="512" viewBox="0 0 512 512" fill="none" xmlns="http://www.w3.org/2000/svg">
<path d="M488 416V237.36C487.999 221.913 483.932 206.737 476.208 193.36L436.12 124C434.917 121.959 433.538 120.026 432 118.224V64C432 59.7565 430.314 55.6869 427.314 52.6863C424.313 49.6857 420.243 48 416 48H288V32C288 27.7565 286.314 23.6869 283.314 20.6863C280.313 17.6857 276.243 16 272 16H32C27.7565 16 23.6869 17.6857 20.6863 20.6863C17.6857 23.6869 16 27.7565 16 32V184C15.9864 185.238 16.2602 186.462 16.8 187.576L32 217.888V384C32 388.243 33.6857 392.313 36.6863 395.314C39.6869 398.314 43.7565 400 48 400H256C260.243 400 264.313 398.314 267.314 395.314C270.314 392.313 272 388.243 272 384V304H354.648C353.311 312.668 352.427 321.4 352 330.16V336.96C352.007 358.656 357.896 379.945 369.04 398.56L376 410.208V416C373.878 416 371.843 416.843 370.343 418.343C368.843 419.843 368 421.878 368 424V488C368 490.122 368.843 492.157 370.343 493.657C371.843 495.157 373.878 496 376 496H488C490.122 496 492.157 495.157 493.657 493.657C495.157 492.157 496 490.122 496 488V424C496 421.878 495.157 419.843 493.657 418.343C492.157 416.843 490.122 416 488 416V416ZM416 64V250.352L361.6 156.08C358.081 149.972 352.644 145.197 346.133 142.496C339.622 139.795 332.401 139.319 325.592 141.143C318.783 142.968 312.766 146.989 308.477 152.583C304.188 158.177 301.866 165.031 301.872 172.08C301.873 177.695 303.346 183.212 306.144 188.08L359.608 280.608L358.128 288H272V217.888L287.2 187.576C287.74 186.462 288.014 185.238 288 184V64H416ZM272 32V64H32V32H272ZM256 384H48V216C48.0012 214.759 47.7136 213.535 47.16 212.424L32 182.112V80H272V182.112L256.8 212.424C256.26 213.538 255.986 214.762 256 216V384ZM390.864 403.888L382.768 390.4C373.097 374.252 367.993 355.782 368 336.96V330.56C368.398 319.345 369.923 308.198 372.552 297.288C372.663 296.958 372.754 296.621 372.824 296.28L375.824 280.944C375.945 280.371 376.004 279.786 376 279.2V279.12C375.986 277.71 375.597 276.329 374.872 275.12L320 180.088C318.6 177.654 317.864 174.896 317.864 172.088C317.858 168.561 319.018 165.131 321.163 162.331C323.308 159.531 326.318 157.518 329.725 156.606C333.132 155.693 336.745 155.932 340.002 157.285C343.26 158.638 345.978 161.03 347.736 164.088L407.736 268.008C408.438 269.224 409.448 270.234 410.664 270.936C411.88 271.638 413.26 272.008 414.664 272.008H424C426.122 272.008 428.157 271.165 429.657 269.665C431.157 268.165 432 266.13 432 264.008V148.8L462.4 201.336C468.703 212.286 472.014 224.702 472 237.336V416H392V408C392.001 406.552 391.608 405.131 390.864 403.888V403.888ZM480 480H384V432H480V480Z" fill="url(#paint0_angular_106_2)"/>
<path d="M224 208H80C77.8783 208 75.8434 208.843 74.3431 210.343C72.8429 211.843 72 213.878 72 216V360C72 362.122 72.8429 364.157 74.3431 365.657C75.8434 367.157 77.8783 368 80 368H224C226.122 368 228.157 367.157 229.657 365.657C231.157 364.157 232 362.122 232 360V216C232 213.878 231.157 211.843 229.657 210.343C228.157 208.843 226.122 208 224 208ZM216 256H184V224H216V256ZM136 304V272H168V304H136ZM168 320V352H136V320H168ZM120 304H88V272H120V304ZM136 256V224H168V256H136ZM184 272H216V304H184V272ZM120 224V256H88V224H120ZM88 320H120V352H88V320ZM184 352V320H216V352H184Z" fill="url(#paint1_angular_106_2)"/>
<path d="M256 104C256 101.878 255.157 99.8434 253.657 98.3431C252.157 96.8429 250.122 96 248 96H56C53.8783 96 51.8434 96.8429 50.3431 98.3431C48.8429 99.8434 48 101.878 48 104V184C48 186.122 48.8429 188.157 50.3431 189.657C51.8434 191.157 53.8783 192 56 192H248C250.122 192 252.157 191.157 253.657 189.657C255.157 188.157 256 186.122 256 184V104ZM240 176H64V112H240V176Z" fill="url(#paint2_angular_106_2)"/>
<path d="M360 144H392C394.122 144 396.157 143.157 397.657 141.657C399.157 140.157 400 138.122 400 136V88C400 85.8783 399.157 83.8434 397.657 82.3431C396.157 80.8429 394.122 80 392 80H360C357.878 80 355.843 80.8429 354.343 82.3431C352.843 83.8434 352 85.8783 352 88V136C352 138.122 352.843 140.157 354.343 141.657C355.843 143.157 357.878 144 360 144ZM368 96H384V128H368V96Z" fill="url(#paint3_angular_106_2)"/>
<path d="M304 80H320V96H304V80Z" fill="url(#paint4_angular_106_2)"/>
<path d="M304 112H320V128H304V112Z" fill="url(#paint5_angular_106_2)"/>
<path d="M304 240H320V272H304V240Z" fill="url(#paint6_angular_106_2)"/>
<path d="M208 136H224V152H208V136Z" fill="url(#paint7_angular_106_2)"/>
<path d="M176 136H192V152H176V136Z" fill="url(#paint8_angular_106_2)"/>
<path d="M144 136H160V152H144V136Z" fill="url(#paint9_angular_106_2)"/>
<path d="M112 136H128V152H112V136Z" fill="url(#paint10_angular_106_2)"/>
<defs>
<radialGradient id="paint0_angular_106_2" cx="0" cy="0" r="1" gradientUnits="userSpaceOnUse" gradientTransform="translate(256 256) rotate(90) scale(240 240)">
<stop stop-color="#B01F8C"/>
<stop offset="1" stop-color="#4F2B83"/>
</radialGradient>
<radialGradient id="paint1_angular_106_2" cx="0" cy="0" r="1" gradientUnits="userSpaceOnUse" gradientTransform="translate(152 288) rotate(90) scale(80)">
<stop stop-color="#B01F8C"/>
<stop offset="1" stop-color="#4F2B83"/>
</radialGradient>
<radialGradient id="paint2_angular_106_2" cx="0" cy="0" r="1" gradientUnits="userSpaceOnUse" gradientTransform="translate(152 144) rotate(90) scale(48 104)">
<stop stop-color="#B01F8C"/>
<stop offset="1" stop-color="#4F2B83"/>
</radialGradient>
<radialGradient id="paint3_angular_106_2" cx="0" cy="0" r="1" gradientUnits="userSpaceOnUse" gradientTransform="translate(376 112) rotate(90) scale(32 24)">
<stop stop-color="#B01F8C"/>
<stop offset="1" stop-color="#4F2B83"/>
</radialGradient>
<radialGradient id="paint4_angular_106_2" cx="0" cy="0" r="1" gradientUnits="userSpaceOnUse" gradientTransform="translate(312 88) rotate(90) scale(8)">
<stop stop-color="#B01F8C"/>
<stop offset="1" stop-color="#4F2B83"/>
</radialGradient>
<radialGradient id="paint5_angular_106_2" cx="0" cy="0" r="1" gradientUnits="userSpaceOnUse" gradientTransform="translate(312 120) rotate(90) scale(8)">
<stop stop-color="#B01F8C"/>
<stop offset="1" stop-color="#4F2B83"/>
</radialGradient>
<radialGradient id="paint6_angular_106_2" cx="0" cy="0" r="1" gradientUnits="userSpaceOnUse" gradientTransform="translate(312 256) rotate(90) scale(16 8)">
<stop stop-color="#B01F8C"/>
<stop offset="1" stop-color="#4F2B83"/>
</radialGradient>
<radialGradient id="paint7_angular_106_2" cx="0" cy="0" r="1" gradientUnits="userSpaceOnUse" gradientTransform="translate(216 144) rotate(90) scale(8)">
<stop stop-color="#B01F8C"/>
<stop offset="1" stop-color="#4F2B83"/>
</radialGradient>
<radialGradient id="paint8_angular_106_2" cx="0" cy="0" r="1" gradientUnits="userSpaceOnUse" gradientTransform="translate(184 144) rotate(90) scale(8)">
<stop stop-color="#B01F8C"/>
<stop offset="1" stop-color="#4F2B83"/>
</radialGradient>
<radialGradient id="paint9_angular_106_2" cx="0" cy="0" r="1" gradientUnits="userSpaceOnUse" gradientTransform="translate(152 144) rotate(90) scale(8)">
<stop stop-color="#B01F8C"/>
<stop offset="1" stop-color="#4F2B83"/>
</radialGradient>
<radialGradient id="paint10_angular_106_2" cx="0" cy="0" r="1" gradientUnits="userSpaceOnUse" gradientTransform="translate(120 144) rotate(90) scale(8)">
<stop stop-color="#B01F8C"/>
<stop offset="1" stop-color="#4F2B83"/>
</radialGradient>
</defs>
</svg>
