<svg id="checked" xmlns="http://www.w3.org/2000/svg" width="52" height="52" viewBox="0 0 52 52">
  <path id="Trazado_7412" data-name="Trazado 7412" d="M81.718,72.481,64.433,89.765,59.169,84.5a1.857,1.857,0,0,0-2.626,2.626L63.12,93.7a1.857,1.857,0,0,0,2.626,0l18.6-18.6a1.857,1.857,0,1,0-2.626-2.626Z" transform="translate(-44.443 -57.093)" fill="#4aa58c"/>
  <path id="Trazado_7413" data-name="Trazado 7413" d="M26,0A26,26,0,1,0,52,26,26.029,26.029,0,0,0,26,0Zm0,48.286A22.286,22.286,0,1,1,48.286,26,22.311,22.311,0,0,1,26,48.286Z" fill="#4aa58c"/>
</svg>
