<svg xmlns="http://www.w3.org/2000/svg" width="51.725" height="51.725" viewBox="0 0 51.725 51.725">
  <g id="cancel" transform="translate(0 -0.004)">
    <g id="Grupo_4479" data-name="Grupo 4479" transform="translate(0 0.004)">
      <g id="Grupo_4478" data-name="Grupo 4478" transform="translate(0 0)">
        <path id="Trazado_7528" data-name="Trazado 7528" d="M44.15,7.579a25.862,25.862,0,1,0,0,36.574A25.862,25.862,0,0,0,44.15,7.579ZM42.322,42.325a23.276,23.276,0,1,1,0-32.917A23.278,23.278,0,0,1,42.322,42.325Z" transform="translate(0 -0.004)" fill="#930000"/>
      </g>
    </g>
    <g id="Grupo_4481" data-name="Grupo 4481" transform="translate(15.426 15.429)">
      <g id="Grupo_4480" data-name="Grupo 4480">
        <path id="Trazado_7529" data-name="Trazado 7529" d="M164.957,163.127l8.229-8.229a1.293,1.293,0,0,0-1.828-1.828l-8.229,8.229-8.229-8.229a1.293,1.293,0,0,0-1.828,1.828l8.229,8.229-8.229,8.229a1.293,1.293,0,1,0,1.828,1.828l8.229-8.229,8.229,8.229a1.293,1.293,0,1,0,1.828-1.828Z" transform="translate(-152.692 -152.689)" fill="#930000"/>
      </g>
    </g>
  </g>
</svg>
